<svg width="1440" height="600" xmlns="http://www.w3.org/2000/svg">
  <defs>
    <linearGradient id="gradient1" x1="0%" y1="0%" x2="100%" y2="100%">
      <stop offset="0%" stop-color="#1e3a8a" stop-opacity="0.2" />
      <stop offset="100%" stop-color="#2563eb" stop-opacity="0.1" />
    </linearGradient>
    <linearGradient id="gradient2" x1="100%" y1="0%" x2="0%" y2="100%">
      <stop offset="0%" stop-color="#1e40af" stop-opacity="0.3" />
      <stop offset="100%" stop-color="#3b82f6" stop-opacity="0.1" />
    </linearGradient>
  </defs>
  
  <rect width="100%" height="100%" fill="#000" />
  
  <!-- Background patterns -->
  <path d="M0,100 Q360,150 720,100 T1440,150 V600 H0 Z" fill="url(#gradient1)" />
  <path d="M1440,200 Q1080,250 720,200 T0,250 V600 H1440 Z" fill="url(#gradient2)" />
  
  <!-- Scattered dots for texture -->
  <g fill="#ffffff" opacity="0.05">
    <circle cx="120" cy="80" r="2" />
    <circle cx="180" cy="150" r="1" />
    <circle cx="260" cy="220" r="1.5" />
    <circle cx="480" cy="90" r="1" />
    <circle cx="520" cy="180" r="2" />
    <circle cx="640" cy="120" r="1" />
    <circle cx="780" cy="80" r="1.5" />
    <circle cx="860" cy="210" r="1" />
    <circle cx="980" cy="130" r="2" />
    <circle cx="1120" cy="190" r="1" />
    <circle cx="1220" cy="80" r="1.5" />
    <circle cx="1380" cy="140" r="1" />
    <circle cx="100" cy="280" r="1" />
    <circle cx="240" cy="340" r="1.5" />
    <circle cx="380" cy="290" r="1" />
    <circle cx="520" cy="380" r="2" />
    <circle cx="680" cy="320" r="1" />
    <circle cx="780" cy="380" r="1.5" />
    <circle cx="920" cy="310" r="1" />
    <circle cx="1060" cy="370" r="2" />
    <circle cx="1200" cy="290" r="1" />
    <circle cx="1320" cy="350" r="1.5" />
  </g>
  
  <!-- Grid lines -->
  <g stroke="#ffffff" stroke-width="0.2" opacity="0.05">
    <line x1="0" y1="100" x2="1440" y2="100" />
    <line x1="0" y1="200" x2="1440" y2="200" />
    <line x1="0" y1="300" x2="1440" y2="300" />
    <line x1="0" y1="400" x2="1440" y2="400" />
    <line x1="0" y1="500" x2="1440" y2="500" />
    <line x1="100" y1="0" x2="100" y2="600" />
    <line x1="300" y1="0" x2="300" y2="600" />
    <line x1="500" y1="0" x2="500" y2="600" />
    <line x1="700" y1="0" x2="700" y2="600" />
    <line x1="900" y1="0" x2="900" y2="600" />
    <line x1="1100" y1="0" x2="1100" y2="600" />
    <line x1="1300" y1="0" x2="1300" y2="600" />
  </g>
</svg>
